<svg xmlns="http://www.w3.org/2000/svg"  viewBox="0 0 40 40" width="500px" height="500px"><path fill="none" stroke="#66798f" stroke-miterlimit="10" d="M20,1.53h-5.1C8.171,1.53,3.464,0.92,3.464,6	s3.525,6.127,3.525,13.054"/><path fill="#e8d47b" d="M31.5,25.5c-2.206,0-4-1.794-4-4s1.794-4,4-4c2.841,0,4,0.724,4,2.5 C35.5,22.172,33.708,25.5,31.5,25.5z"/><path fill="#ba9b48" d="M31.5,18c3.23,0,3.5,0.988,3.5,2c0,2.091-1.764,5-3.5,5c-1.93,0-3.5-1.57-3.5-3.5S29.57,18,31.5,18 M31.5,17c-2.485,0-4.5,2.015-4.5,4.5s2.015,4.5,4.5,4.5s4.5-3.515,4.5-6S33.985,17,31.5,17L31.5,17z"/><path fill="#ffeea3" d="M19.916,38.5c-1.876,0-3.662-0.91-4.775-2.435l-0.08-0.11l-0.125-0.054 C10.418,33.943,7.5,29.501,7.5,24.584V13.832C7.5,7.032,13.032,1.5,19.832,1.5h0.336c6.8,0,12.332,5.532,12.332,12.332v10.752 c0,4.917-2.918,9.359-7.436,11.316l-0.125,0.054l-0.08,0.11C23.746,37.59,21.96,38.5,20.084,38.5H19.916z"/><path fill="#ba9b48" d="M20.168,2C26.692,2,32,7.308,32,13.832v10.752c0,4.718-2.8,8.98-7.134,10.858l-0.25,0.108 l-0.16,0.22c-1.02,1.396-2.654,2.23-4.372,2.23h-0.168c-1.718,0-3.352-0.834-4.372-2.23l-0.16-0.22l-0.25-0.108 C10.8,33.564,8,29.302,8,24.584V13.832C8,7.308,13.308,2,19.832,2H20.168 M20.168,1h-0.336C12.745,1,7,6.745,7,13.832v10.752 c0,5.276,3.186,9.803,7.737,11.775c1.167,1.598,3.049,2.64,5.179,2.64h0.168c2.13,0,4.012-1.042,5.179-2.64 C29.814,34.388,33,29.86,33,24.584V13.832C33,6.745,27.255,1,20.168,1L20.168,1z"/><path fill="#36404d" d="M26.5 20A1.5 1.5 0 1 0 26.5 23 1.5 1.5 0 1 0 26.5 20zM13.5 20A1.5 1.5 0 1 0 13.5 23 1.5 1.5 0 1 0 13.5 20z"/><path fill="#839cb2" d="M11.572,33.891C9.903,32.55,5.5,28.32,5.5,21v-0.265c-0.001-2.226-0.003-5.544,0.859-8.235H27 c0.276,0,0.5,0.224,0.5,0.5v3c0,0.276-0.224,0.5-0.5,0.5h-2c-1.378,0-2.5,1.122-2.5,2.5v4.006c0,0.824-0.682,1.494-1.52,1.494 C14.011,24.5,12.047,31.444,11.572,33.891z M12,17.5c-1.378,0-2.5,1.122-2.5,2.5v3c0,1.219,1.023,2.33,2.146,2.33 c0.208,0,0.415-0.037,0.612-0.111l5.292-1.572c0.95-0.356,0.95-0.961,0.949-1.602V19c0-0.827-0.673-1.5-1.5-1.5H12z"/><path fill="#66798f" d="M27,13v3h-2c-1.654,0-3,1.346-3,3l0,4.006C22,23.554,21.542,24,20.96,24 c-6.079,0-8.834,5.156-9.726,8.951C9.357,31.25,6,27.324,6,21l0-0.266C5.999,18.636,5.997,15.553,6.73,13H27 M11.646,25.83 c0.256,0,0.508-0.044,0.75-0.13l5.296-1.575l0.034-0.01l0.033-0.012C19.001,23.636,19,22.716,19,22v-3c0-1.103-0.897-2-2-2h-5 c-1.654,0-3,1.346-3,3v3C9,24.507,10.237,25.83,11.646,25.83 M27,12H6c-1.041,2.933-1,6.588-1,9 c0,9.388,6.935,13.781,6.935,13.781S12.918,25,20.96,25c0.006,0,0.01,0,0.016,0c0.001,0,0.002,0,0.003,0 c1.109,0,2.02-0.885,2.02-1.994L23,19c0-1.105,0.895-2,2-2h2c0.55,0,1-0.45,1-1v-3C28,12.45,27.55,12,27,12L27,12z M11.646,24.83 C10.783,24.83,10,23.929,10,23v-3c0-1.105,0.895-2,2-2h5c0.552,0,1,0.448,1,1v3c0,0.649,0.015,0.938-0.592,1.167l-5.325,1.583 C11.938,24.805,11.791,24.83,11.646,24.83L11.646,24.83z"/><path fill="#36404d" d="M14.6,17h-4.2C9.627,17,9,16.373,9,15.6v-4.2c0-0.773,0.627-1.4,1.4-1.4h4.2	c0.773,0,1.4,0.627,1.4,1.4v4.2C16,16.373,15.373,17,14.6,17z"/><path fill="#e1ebf2" d="M12.5 12A1.5 1.5 0 1 0 12.5 15A1.5 1.5 0 1 0 12.5 12Z"/><path fill="#f75252" d="M5.5 22A1.5 1.5 0 1 0 5.5 25A1.5 1.5 0 1 0 5.5 22Z"/><path fill="#66798f" d="M5.5,21c-0.17,0-0.337,0.018-0.498,0.05c0.001,0.353,0.027,0.687,0.047,1.026	C5.192,22.031,5.342,22,5.5,22C6.328,22,7,22.672,7,23.5S6.328,25,5.5,25c-0.013,0-0.025-0.003-0.037-0.004	c0.077,0.334,0.156,0.666,0.249,0.982C6.99,25.869,8,24.806,8,23.5C8,22.122,6.878,21,5.5,21z"/></svg>