<svg xmlns="http://www.w3.org/2000/svg"  viewBox="0 0 40 40" width="500px" height="500px"><path fill="#e1ebf2" d="M20,38.5c-8.166,0-14.5-11.403-14.5-21.214C5.5,7.696,11.191,1.5,20,1.5s14.5,6.196,14.5,15.786 C34.5,27.097,28.166,38.5,20,38.5z"/><path fill="#a3b7cc" d="M20,2c8.505,0,14,6,14,15.286C34,26.865,27.884,38,20,38S6,26.865,6,17.286C6,8,11.495,2,20,2 M20,1 C10.889,1,5,7.572,5,17.286C5,27.463,11.552,39,20,39s15-11.537,15-21.714C35,7.572,29.111,1,20,1L20,1z"/><path fill="#a3b7cc" d="M34.878,15.744C22.909,9.725,7.166,10.001,7,10c0,0,0.296-1.009,1-1	c3.942,0.049,16.365,0.611,26.669,5.585L34.878,15.744z"/><path fill="#a3b7cc" d="M32.206 8.046c-7.131.279-11.535 2.597-11.766 2.704l1.462.496C21.956 11.22 26.153 9.284 33 9L32.206 8.046zM31 31c-11.996 0-24.394-7.915-24.916-8.252L7 21.966C7.125 22.047 19.588 30 31.175 30L31 31zM33 26c-11.996 0-24.394-7.915-24.916-8.252l.742-.783C8.95 17.047 21.414 25 33 25V26z"/><path fill="#b08159" d="M20,23.5c-6.234,0-11.745-0.425-13.957-1.064C5.683,20.671,5.5,18.939,5.5,17.286 c0-0.453,0.025-0.892,0.051-1.33c0.012-0.179,0.025-0.357,0.04-0.535C7.778,14.962,12.586,14.5,20,14.5 c7.062,0,12.07,0.484,14.41,0.929c0.015,0.176,0.027,0.353,0.039,0.53c0.026,0.436,0.051,0.874,0.051,1.327 c0,1.65-0.182,3.378-0.542,5.139C31.441,23.091,26.156,23.5,20,23.5z"/><path fill="#a16a4a" d="M20,15c6.676,0,11.492,0.433,13.94,0.852c0.003,0.044,0.006,0.088,0.009,0.132 c0.024,0.4,0.05,0.853,0.05,1.301c0,1.521-0.158,3.11-0.47,4.73C30.961,22.619,25.789,23,20,23 c-5.844,0-11.205-0.391-13.527-0.968C6.159,20.406,6,18.812,6,17.286c0-0.448,0.027-0.901,0.05-1.292 c0.004-0.052,0.007-0.104,0.011-0.156C8.365,15.409,13.013,15,20,15 M20,14c-7.165,0-12.523,0.445-14.873,1.012v0 c-0.03,0.301-0.054,0.607-0.074,0.913C5.026,16.374,5,16.823,5,17.286c0,1.827,0.219,3.698,0.614,5.538 C7.748,23.555,13.661,24,20,24s11.935-0.445,14.386-1.176C34.781,20.983,35,19.113,35,17.286c0-0.463-0.026-0.912-0.052-1.36 c-0.021-0.307-0.044-0.612-0.074-0.913v0C32.477,14.499,27.165,14,20,14L20,14z"/><path fill="#ffeea3" d="M26.564,21.5c-2.176,0-2.955-2.039-3.062-3.117l-0.045-0.455l8.231-1.567l-0.205,0.769 C31.436,17.307,30.276,21.5,26.564,21.5z"/><path fill="#a16a4a" d="M31,17c0,0-1.065,4-4.435,4C24.265,21,24,18.333,24,18.333L31,17 M32.376,15.72l-1.563,0.298 l-7,1.333l-0.899,0.171l0.091,0.91C23.128,19.666,24.03,22,26.565,22c4.092,0,5.35-4.549,5.402-4.743L32.376,15.72L32.376,15.72z"/><g><path fill="#ffeea3" d="M13.436,21.5c-3.712,0-4.871-4.192-4.918-4.371L8.312,16.36l8.231,1.567l-0.045,0.455 C16.39,19.461,15.612,21.5,13.436,21.5z"/><path fill="#a16a4a" d="M9,17l7,1.333c0,0-0.265,2.667-2.565,2.667C10.065,21,9,17,9,17 M7.624,15.72l0.409,1.537 C8.085,17.451,9.344,22,13.435,22c2.535,0,3.437-2.334,3.56-3.568l0.091-0.91l-0.899-0.171l-7-1.333L7.624,15.72L7.624,15.72z"/></g><path fill="#a3b7cc" d="M27 36c-6.875 0-14.155-3.617-17.729-5.692C7.959 29.546 8 28.214 8 28.214 8.097 28.295 18.189 35 27.091 35L27 36zM13.301 9.944c3.623-3.124 7.929-5.965 14.784-5.965l-2.061-1.03C17.99 3.824 13.39 8.206 11.733 9.944H13.301z"/></svg>