<svg xmlns="http://www.w3.org/2000/svg"  viewBox="0 0 40 40" width="500px" height="500px"><path fill="#839cb2" d="M11.242,36.632c-0.356-1.633-0.909-3.477-1.742-4.781V14.5h21v17.351 c-0.833,1.304-1.386,3.148-1.742,4.781c-0.59-1.126-1.044-2.445-1.266-3.718c-0.298-1.782-5.646-4.448-7.278-5.223L20,27.589 l-0.214,0.102c-1.632,0.775-6.98,3.441-7.279,5.227C12.285,34.187,11.832,35.506,11.242,36.632z"/><path fill="#66798f" d="M30,15v16.708c-0.591,0.968-1.041,2.185-1.378,3.395c-0.284-0.742-0.505-1.521-0.635-2.267 c-0.317-1.898-4.871-4.321-7.557-5.596L20,27.036l-0.429,0.204c-2.686,1.275-7.24,3.698-7.556,5.589 c-0.131,0.75-0.352,1.53-0.637,2.274c-0.338-1.21-0.787-2.426-1.378-3.394V15h10H30 M31,14H20H9v18c1.104,1.642,1.703,4.296,2,6 c0.994-1.428,1.71-3.338,2-5c0.279-1.667,7-4.857,7-4.857s6.721,3.19,7,4.857c0.29,1.662,1.006,3.572,2,5 c0.297-1.704,0.896-4.358,2-6V14L31,14z"/><path fill="#788b9c" d="M35.017,37.523c-0.982-1.045-2.013-2.561-2.564-3.736L31.5,31.76v5.219 c-1.149-2.357-2.959-6.715-3-10.841l2.783-4.637H34.5V32c0,0.361-0.004,0.688-0.008,0.991 C34.472,34.538,34.458,35.525,35.017,37.523z M4.983,37.523c0.559-1.998,0.545-2.985,0.525-4.532C5.504,32.688,5.5,32.361,5.5,32 V21.5h3.217l2.783,4.637c-0.04,4.126-1.85,8.484-3,10.841V31.76l-0.953,2.028C6.996,34.962,5.965,36.478,4.983,37.523z"/><path fill="#66798f" d="M34,22v10c0,0.359-0.004,0.683-0.008,0.984c-0.012,0.931-0.022,1.682,0.099,2.587 c-0.478-0.683-0.902-1.393-1.186-1.997L31,29.519V34v0.653c-0.958-2.326-1.94-5.409-1.997-8.38L31.566,22H34 M8.434,22l2.564,4.273 C10.94,29.237,9.958,32.32,9,34.648V34v-4.481l-1.905,4.055c-0.283,0.603-0.708,1.313-1.186,1.997 c0.121-0.905,0.111-1.656,0.099-2.587C6.004,32.683,6,32.359,6,32V22H8.434 M35,21h-4l-3,5c0,6.277,4,13,4,13v-5 c0.785,1.67,2.615,4.219,4,5c-1.217-3.621-1-4.413-1-7V21L35,21z M9,21H5v11c0,2.587,0.217,3.379-1,7c1.385-0.781,3.215-3.33,4-5v5 c0,0,4-6.723,4-13L9,21L9,21z"/><path fill="#e1ebf2" d="M34.902,29.899c-0.518-2.41-0.451-4.914-0.415-6.268C34.495,23.372,34.5,23.158,34.5,23h-1 c0,0.49-0.487,2.213-0.917,3.733c-0.238,0.842-0.48,1.7-0.684,2.482c-0.268-1.068-0.399-2.321-0.399-3.787v-1.607 c0.545-0.995,0.858-1.698,0.958-2.147c0.026-0.085,0.042-0.196,0.042-0.317c0-1.106-3.312-6.392-4.326-7.985 c-0.183-0.334-1.803-3.194-3.571-3.771C25.034,7.944,26.477,4.5,31,4.5c5.933,0,7.5,5.56,7.5,8.5c0,4.369-1.404,8.943-2.533,12.62 l-0.124,0.404l-0.058,0.222C35.438,27.563,35.143,28.785,34.902,29.899z M5.098,29.899c-0.24-1.115-0.535-2.336-0.883-3.653 l-0.048-0.184L4.033,25.62C2.904,21.943,1.5,17.369,1.5,13c0-2.94,1.567-8.5,7.5-8.5c4.523,0,5.966,3.444,6.397,5.101 c-1.768,0.578-3.39,3.44-3.587,3.798c-0.999,1.566-4.31,6.851-4.31,7.958c0,0.121,0.016,0.232,0.05,0.349 c0.092,0.419,0.405,1.122,0.95,2.116v1.607c0,1.465-0.131,2.718-0.399,3.787c-0.203-0.783-0.446-1.64-0.684-2.482 C6.987,25.213,6.5,23.49,6.5,23h-1c0,0.158,0.005,0.372,0.013,0.631C5.548,24.985,5.615,27.49,5.098,29.899z"/><path fill="#a3b7cc" d="M31,5c6.92,0,7,7.673,7,8c0,4.293-1.392,8.827-2.51,12.471l-0.125,0.406l-0.011,0.039l-0.007,0.028 l-0.045,0.173c-0.094,0.356-0.184,0.705-0.27,1.047c-0.101-1.413-0.067-2.688-0.045-3.519C34.994,23.38,35,23.162,35,23h-2 c0,0.421-0.519,2.256-0.898,3.596c-0.019,0.068-0.038,0.135-0.057,0.203C32.015,26.363,32,25.906,32,25.429v-1.479 c0.682-1.259,0.867-1.822,0.94-2.138c0.04-0.149,0.06-0.298,0.06-0.454c0-1.103-2.382-5.077-4.388-8.227 c-0.341-0.614-1.722-2.957-3.406-3.813C25.727,7.685,27.168,5,31,5 M9,5c3.832,0,5.273,2.685,5.794,4.316 c-1.684,0.857-3.066,3.199-3.406,3.813C9.382,16.28,7,20.254,7,21.357c0,0.156,0.02,0.305,0.06,0.454 c0.073,0.316,0.258,0.879,0.94,2.138v1.479c0,0.477-0.015,0.934-0.045,1.37c-0.019-0.068-0.038-0.135-0.057-0.203 C7.519,25.256,7,23.421,7,23H5c0,0.162,0.006,0.38,0.013,0.645c0.022,0.832,0.056,2.107-0.045,3.519 c-0.086-0.342-0.176-0.691-0.27-1.047l-0.04-0.148l-0.01-0.046l-0.014-0.045L4.51,25.471C3.392,21.827,2,17.293,2,13 C2,12.673,2.08,5,9,5 M31,4c-4.415,0-6.461,3.19-7,6c1.748,0,3.752,3.641,3.752,3.641S32,20.31,32,21.357 c0,0.083-0.012,0.148-0.03,0.209c-0.104,0.469-0.499,1.275-0.97,2.127c0,0.633,0,1.468,0,1.735c0,1.787,0.193,3.869,1,5.571 c0.424-2.29,2-6.954,2-8c0,1.192-0.329,5.579,1,9c0.481-2.771,1.298-5.718,1.321-5.83C37.497,22.334,39,17.604,39,13 C39,9.859,37.333,4,31,4L31,4z M9,4c-6.333,0-8,5.859-8,9c0,4.604,1.503,9.334,2.679,13.17C3.702,26.282,4.519,29.229,5,32 c1.329-3.421,1-7.808,1-9c0,1.046,1.576,5.71,2,8c0.807-1.702,1-3.784,1-5.571c0-0.268,0-1.102,0-1.735 c-0.472-0.853-0.866-1.659-0.97-2.127C8.012,21.505,8,21.44,8,21.357c0-1.047,4.248-7.716,4.248-7.716S14.252,10,16,10 C15.461,7.19,13.415,4,9,4L9,4z"/><path fill="#fff" d="M34,5.622L34,5.622c0.145,0.067,0.282,0.14,0.418,0.214C34.62,5.95,34.821,6.064,35,6.196V7h-1V5.622	z M32.261,19H33v-3h-1v2.52C32.097,18.691,32.176,18.842,32.261,19z M28,6h-0.47C27.339,6.133,27.164,6.275,27,6.424V9h1V6z M37.265,19c0.107-0.49,0.205-0.983,0.293-1.479c0.004-0.024,0.007-0.048,0.012-0.071c0.085-0.482,0.16-0.965,0.222-1.45H37v3	H37.265z M33,23h1v-3h-1V23z M30,14h-0.812c0.285,0.433,0.557,0.85,0.812,1.246V14z M28,10v2.197	c0.103,0.147,0.195,0.281,0.276,0.404c0.039,0.058,0.069,0.105,0.102,0.156c0.04,0.063,0.073,0.114,0.105,0.165	c0.015,0.024,0.037,0.057,0.05,0.079H29v-3H28z M29,7h1V5.09c-0.359,0.062-0.692,0.157-1,0.28V7z M32,9h1V6h-1V9z M35,11h1V8h-1V11z M33,13h1v-3h-1V13z M36,15h1v-3h-1V15z M31,15h1v-3h-1V15z M34,17h1v-3h-1V17z M35,21h1v-3h-1V21z M30,11h1V8h-1V11z M6,5.622	L6,5.622c-0.145,0.067-0.282,0.14-0.418,0.214C5.38,5.95,5.179,6.064,5,6.196V7h1V5.622z M8,18.52V16H7v3h0.739	C7.824,18.842,7.903,18.691,8,18.52z M12,9h1V6.424C12.836,6.275,12.661,6.133,12.47,6H12V9z M3,19v-3H2.209	c0.062,0.485,0.137,0.968,0.222,1.45c0.004,0.024,0.007,0.048,0.012,0.071C2.53,18.017,2.629,18.51,2.735,19H3z M7,20H6v3h1V20z M10,15.246c0.255-0.397,0.527-0.813,0.812-1.246H10V15.246z M11,10v3h0.467c0.013-0.021,0.035-0.055,0.05-0.079	c0.032-0.051,0.064-0.102,0.105-0.165c0.033-0.051,0.064-0.098,0.102-0.156c0.081-0.123,0.173-0.256,0.276-0.404V10H11z M11,5.37	c-0.308-0.123-0.641-0.218-1-0.28V7h1V5.37z M8,6H7v3h1V6z M5,8H4v3h1V8z M7,10H6v3h1V10z M4,12H3v3h1V12z M9,12H8v3h1V12z M6,14H5	v3h1V14z M5,18H4v3h1V18z M10,8H9v3h1V8z"/><path fill="#839cb2" d="M12.503,28.5c0.094-7.465,2.261-12.763,2.816-14h9.362c0.555,1.237,2.722,6.535,2.816,14H12.503z"/><path fill="#66798f" d="M24.355,15c0.669,1.565,2.464,6.356,2.632,13H20h-6.987c0.169-6.623,1.966-11.431,2.633-13H20 H24.355 M25,14h-5h-5c0,0-3,5.966-3,15h8h8C28,19.966,25,14,25,14L25,14z"/><path fill="#ffeea3" d="M32,21.357c0-1.047-4.248-7.716-4.248-7.716S25.748,10,24,10h-4h-4 c-1.748,0-3.752,3.641-3.752,3.641S8,20.31,8,21.357C8,22.404,11,27,11,27s-2.794,3.117,1,5c0,4.496,1,7,1,7h6v-6h1h1v6h6 c0,0,1-2.504,1-7c3.794-1.883,1-5,1-5S32,22.404,32,21.357z M12.531,28.958l-0.004-0.002C13.375,27.086,12,25,12,25l-1-4l3.894-5 H15l1,8C15.479,24.504,13.508,26.53,12.531,28.958z M27.473,28.956l-0.004,0.002C26.492,26.53,24.521,24.504,24,24l1-8h0.106L29,21 l-1,4C28,25,26.625,27.086,27.473,28.956z"/><path fill="#ffeea3" d="M21.5,38.5v-6h-3v6h-5.144C13.104,37.707,12.5,35.444,12.5,32c0-3.423,2.383-6.23,3.804-7.599 l0.18-0.174l0.012-0.29l-0.873-6.981L20,19.583l4.376-2.626l-0.904,7.229l0.298,0.286c3.206,3.01,3.798,5.745,3.73,7.509 c0,3.474-0.604,5.729-0.856,6.519H21.5z"/><path fill="#f5c276" d="M23.753,17.914l-0.745,5.962l-0.062,0.495l0.359,0.347l0.124,0.117 C26.497,27.717,27.065,30.301,27,32c0,2.965-0.456,5.03-0.729,6H22v-5v-1h-1h-1h-1h-1v1v5h-4.271C13.456,37.028,13,34.964,13,32 c0-3.239,2.288-5.926,3.651-7.239l0.044-0.043l0.359-0.347l-0.062-0.495l-0.745-5.962l3.238,1.943L20,20.166l0.515-0.309 L23.753,17.914 M25,16l-5,3l-5-3l1,8c-0.521,0.504-4,3.75-4,8c0,4.496,1,7,1,7h6v-6h1h1v6h6c0,0,1-2.504,1-7 c0.167-4.333-3.479-7.496-4-8L25,16L25,16z"/><path fill="#f78f8f" d="M16.429 19.143H23.572V19.5H16.429z"/><path fill="#c74343" d="M24.071 18.643L15.929 18.643 15.929 20 24.071 20 24.071 18.643z"/><path fill="#f5ce85" d="M20,2c2.357,0,4,0.78,4,1.481C24,4.199,22.357,5,20,5s-4-0.801-4-1.519C16,2.78,17.643,2,20,2 M20,1 c-2.5,0-5,0.827-5,2.481C15,5.135,17.515,6,20,6s5-0.865,5-2.519C25,1.827,22.5,1,20,1L20,1z"/><path fill="#f5c276" d="M15.632 10.5l-.024.042c.012-.002.024-.006.036-.007C15.641 10.525 15.632 10.5 15.632 10.5zM20 26A1 1 0 1 0 20 28 1 1 0 1 0 20 26z"/><g><path fill="#f78f8f" d="M19.331,35.5c-0.502-1.101-2.413-4.567-6.681-4.961c0.067-0.35,0.157-0.698,0.268-1.039H27.16 c0.104,0.338,0.184,0.683,0.241,1.031c-4.363,0.366-6.244,3.854-6.736,4.969H19.331z"/><path fill="#c74343" d="M26.78,30c0.008,0.033,0.016,0.066,0.024,0.099c-3.548,0.53-5.628,3.095-6.476,4.901H20h-0.347 c-0.662-1.347-2.529-4.294-6.393-4.891c0.01-0.036,0.019-0.073,0.029-0.109H20H26.78 M27.521,29H20h-7.437 c-0.233,0.628-0.404,1.3-0.493,2.005C17.283,31.143,19,36,19,36h1h1c0,0,1.642-4.883,6.965-4.997 C27.898,30.296,27.743,29.624,27.521,29L27.521,29z"/></g><g><path fill="#f78f8f" d="M16.5 18.5H23.5V19.5H16.5z"/><path fill="#c74343" d="M24 18L16 18 16 20 24 20 24 18z"/></g><g><path fill="#f78f8f" d="M24,20.5c-2.212,0-3.124-1.638-3.41-2.332l4.322-3.458C25.531,15.563,26.5,17.087,26.5,18 C26.5,19.212,25.624,20.5,24,20.5z"/><path fill="#c74343" d="M24.81,15.433C25.414,16.328,26,17.409,26,18c0,0.97-0.701,2-2,2c-1.628,0-2.435-1.008-2.794-1.685 L24.81,15.433 M25,14l-5,4c0,0,0.819,3,4,3c1.874,0,3-1.501,3-3S25,14,25,14L25,14z"/></g><g><path fill="#f78f8f" d="M16,20.5c-1.624,0-2.5-1.288-2.5-2.5c0-0.913,0.969-2.438,1.588-3.289l4.322,3.458 C19.124,18.862,18.212,20.5,16,20.5z"/><path fill="#c74343" d="M15.19,15.433l3.603,2.882C18.434,18.994,17.627,20,16,20c-1.299,0-2-1.03-2-2 C14,17.409,14.586,16.328,15.19,15.433 M15,14c0,0-2,2.501-2,4s1.126,3,3,3c3.181,0,4-3,4-3L15,14L15,14z"/></g><path fill="#f5c276" d="M20 10L16 10 16 11 20 11 24 11 24 10z"/></svg>